<svg version="1.1" viewBox="0.0 0.0 566.0 308.0" fill="none" stroke="none" stroke-linecap="square" stroke-miterlimit="10" width="566" height="308" xmlns:xlink="http://www.w3.org/1999/xlink" xmlns="http://www.w3.org/2000/svg"><path fill="#ffffff" d="M0 0L566.0 0L566.0 308.0L0 308.0L0 0Z" fill-rule="nonzero"/><path stroke="#cccccc" stroke-width="1.0" stroke-linecap="butt" d="M42.5 240.5L550.5 240.5" fill-rule="nonzero"/><path stroke="#cccccc" stroke-width="1.0" stroke-linecap="butt" d="M42.5 184.5L550.5 184.5" fill-rule="nonzero"/><path stroke="#cccccc" stroke-width="1.0" stroke-linecap="butt" d="M42.5 160.5L550.5 160.5" fill-rule="nonzero"/><path stroke="#cccccc" stroke-width="1.0" stroke-linecap="butt" d="M42.5 104.5L550.5 104.5" fill-rule="nonzero"/><path stroke="#cccccc" stroke-width="1.0" stroke-linecap="butt" d="M42.5 80.5L550.5 80.5" fill-rule="nonzero"/><clipPath id="id_0"><path d="M42.4 80.933334L550.6 80.933334L550.6 240.6L42.4 240.6L42.4 80.933334Z" clip-rule="nonzero"/></clipPath><path stroke="#4285f4" stroke-width="2.0" stroke-linecap="butt" clip-path="url(#id_0)" d="M127.1 88.05145L296.5 97.21782L465.9 152.42511" fill-rule="nonzero"/><path stroke="#ea4335" stroke-width="2.0" stroke-linecap="butt" clip-path="url(#id_0)" d="M127.1 93.36412L296.5 164.88503L465.9 235.4541" fill-rule="nonzero"/><path fill="#000000" fill-opacity="0.0" clip-path="url(#id_0)" d="M130.1 88.05145C130.1 89.708305 128.75685 91.05145 127.1 91.05145C125.443146 91.05145 124.1 89.708305 124.1 88.05145C124.1 86.3946 125.443146 85.05145 127.1 85.05145C128.75685 85.05145 130.1 86.3946 130.1 88.05145Z" fill-rule="nonzero"/><path fill="#000000" fill-opacity="0.0" clip-path="url(#id_0)" d="M299.5 97.21782C299.5 98.87467 298.15686 100.21782 296.5 100.21782C294.84314 100.21782 293.5 98.87467 293.5 97.21782C293.5 95.56097 294.84314 94.21782 296.5 94.21782C298.15686 94.21782 299.5 95.56097 299.5 97.21782Z" fill-rule="nonzero"/><path fill="#000000" fill-opacity="0.0" clip-path="url(#id_0)" d="M468.9 152.42511C468.9 154.08197 467.55685 155.42511 465.9 155.42511C464.24313 155.42511 462.9 154.08197 462.9 152.42511C462.9 150.76826 464.24313 149.42511 465.9 149.42511C467.55685 149.42511 468.9 150.76826 468.9 152.42511Z" fill-rule="nonzero"/><path fill="#000000" fill-opacity="0.0" clip-path="url(#id_0)" d="M130.1 93.36412C130.1 95.02097 128.75685 96.36412 127.1 96.36412C125.443146 96.36412 124.1 95.02097 124.1 93.36412C124.1 91.70727 125.443146 90.36412 127.1 90.36412C128.75685 90.36412 130.1 91.70727 130.1 93.36412Z" fill-rule="nonzero"/><path fill="#000000" fill-opacity="0.0" clip-path="url(#id_0)" d="M299.5 164.88503C299.5 166.54189 298.15686 167.88503 296.5 167.88503C294.84314 167.88503 293.5 166.54189 293.5 164.88503C293.5 163.22818 294.84314 161.88503 296.5 161.88503C298.15686 161.88503 299.5 163.22818 299.5 164.88503Z" fill-rule="nonzero"/><path fill="#000000" fill-opacity="0.0" clip-path="url(#id_0)" d="M468.9 235.4541C468.9 237.11096 467.55685 238.4541 465.9 238.4541C464.24313 238.4541 462.9 237.11096 462.9 235.4541C462.9 233.79726 464.24313 232.4541 465.9 232.4541C467.55685 232.4541 468.9 233.79726 468.9 235.4541Z" fill-rule="nonzero"/><path fill="#000000" d="M269.10938 289.74063L269.60938 287.25626L268.625 287.25626L268.625 286.38126L269.79688 286.38126L270.21875 284.25626L268.625 284.25626L268.625 283.38126L270.40625 283.38126L270.90625 280.86563L271.78125 280.86563L271.28125 283.38126L273.125 283.38126L273.64062 280.86563L274.51562 280.86563L274.01562 283.38126L275.01562 283.38126L275.01562 284.25626L273.82812 284.25626L273.39062 286.38126L275.01562 286.38126L275.01562 287.25626L273.21875 287.25626L272.70312 289.74063L271.82812 289.74063L272.32812 287.25626L270.5 287.25626L269.98438 289.74063L269.10938 289.74063ZM270.67188 286.38126L272.51562 286.38126L272.95312 284.25626L271.10938 284.25626L270.67188 286.38126ZM278.90625 286.49063Q278.90625 284.75626 279.85938 283.92813Q280.65625 283.24063 281.8125 283.24063Q283.09375 283.24063 283.90625 284.08438Q284.73438 284.9125 284.73438 286.39688Q284.73438 287.6 284.375 288.2875Q284.01562 288.975 283.3125 289.36563Q282.625 289.74063 281.8125 289.74063Q280.51562 289.74063 279.70312 288.9125Q278.90625 288.06876 278.90625 286.49063ZM279.98438 286.49063Q279.98438 287.67813 280.5 288.27188Q281.03125 288.86563 281.8125 288.86563Q282.60938 288.86563 283.125 288.27188Q283.64062 287.67813 283.64062 286.45938Q283.64062 285.30313 283.10938 284.70938Q282.59375 284.11563 281.8125 284.11563Q281.03125 284.11563 280.5 284.70938Q279.98438 285.2875 279.98438 286.49063ZM286.54688 289.6L286.54688 284.19376L285.60938 284.19376L285.60938 283.38126L286.54688 283.38126L286.54688 282.70938Q286.54688 282.08438 286.65625 281.7875Q286.8125 281.36563 287.1875 281.11563Q287.57812 280.86563 288.26562 280.86563Q288.71875 280.86563 289.25 280.975L289.09375 281.88126Q288.76562 281.83438 288.46875 281.83438Q287.98438 281.83438 287.78125 282.0375Q287.59375 282.24063 287.59375 282.80313L287.59375 283.38126L288.8125 283.38126L288.8125 284.19376L287.59375 284.19376L287.59375 289.6L286.54688 289.6ZM292.29688 291.99063L292.29688 283.38126L293.25 283.38126L293.25 284.17813Q293.59375 283.70938 294.01562 283.475Q294.45312 283.24063 295.0625 283.24063Q295.85938 283.24063 296.46875 283.64688Q297.07812 284.05313 297.375 284.80313Q297.6875 285.55313 297.6875 286.44376Q297.6875 287.39688 297.34375 288.1625Q297.01562 288.92813 296.35938 289.33438Q295.70312 289.74063 294.98438 289.74063Q294.45312 289.74063 294.03125 289.52188Q293.60938 289.2875 293.34375 288.95938L293.34375 291.99063L292.29688 291.99063ZM293.25 286.52188Q293.25 287.725 293.73438 288.30313Q294.21875 288.86563 294.90625 288.86563Q295.60938 288.86563 296.10938 288.27188Q296.60938 287.67813 296.60938 286.42813Q296.60938 285.24063 296.125 284.6625Q295.64062 284.06876 294.95312 284.06876Q294.28125 284.06876 293.76562 284.69376Q293.25 285.31876 293.25 286.52188ZM298.90625 286.49063Q298.90625 284.75626 299.85938 283.92813Q300.65625 283.24063 301.8125 283.24063Q303.09375 283.24063 303.90625 284.08438Q304.73438 284.9125 304.73438 286.39688Q304.73438 287.6 304.375 288.2875Q304.01562 288.975 303.3125 289.36563Q302.625 289.74063 301.8125 289.74063Q300.51562 289.74063 299.70312 288.9125Q298.90625 288.06876 298.90625 286.49063ZM299.98438 286.49063Q299.98438 287.67813 300.5 288.27188Q301.03125 288.86563 301.8125 288.86563Q302.60938 288.86563 303.125 288.27188Q303.64062 287.67813 303.64062 286.45938Q303.64062 285.30313 303.10938 284.70938Q302.59375 284.11563 301.8125 284.11563Q301.03125 284.11563 300.5 284.70938Q299.98438 285.2875 299.98438 286.49063ZM306.29688 282.225L306.29688 281.00626L307.35938 281.00626L307.35938 282.225L306.29688 282.225ZM306.29688 289.6L306.29688 283.38126L307.35938 283.38126L307.35938 289.6L306.29688 289.6ZM309.29688 289.6L309.29688 283.38126L310.23438 283.38126L310.23438 284.25626Q310.92188 283.24063 312.21875 283.24063Q312.78125 283.24063 313.25 283.44376Q313.73438 283.64688 313.96875 283.975Q314.20312 284.30313 314.29688 284.74063Q314.34375 285.0375 314.34375 285.77188L314.34375 289.6L313.29688 289.6L313.29688 285.81876Q313.29688 285.1625 313.17188 284.85Q313.04688 284.5375 312.73438 284.35Q312.42188 284.14688 312.0 284.14688Q311.32812 284.14688 310.82812 284.58438Q310.34375 285.00626 310.34375 286.19376L310.34375 289.6L309.29688 289.6ZM318.59375 288.6625L318.75 289.58438Q318.29688 289.67813 317.95312 289.67813Q317.375 289.67813 317.0625 289.50626Q316.75 289.31876 316.60938 289.02188Q316.48438 288.725 316.48438 287.77188L316.48438 284.19376L315.71875 284.19376L315.71875 283.38126L316.48438 283.38126L316.48438 281.83438L317.53125 281.20938L317.53125 283.38126L318.59375 283.38126L318.59375 284.19376L317.53125 284.19376L317.53125 287.83438Q317.53125 288.2875 317.57812 288.4125Q317.64062 288.5375 317.76562 288.61563Q317.89062 288.69376 318.125 288.69376Q318.3125 288.69376 318.59375 288.6625ZM318.875 287.74063L319.90625 287.58438Q320.0 288.20938 320.39062 288.5375Q320.79688 288.86563 321.53125 288.86563Q322.25 288.86563 322.59375 288.58438Q322.95312 288.2875 322.95312 287.88126Q322.95312 287.52188 322.64062 287.31876Q322.42188 287.17813 321.5625 286.95938Q320.40625 286.6625 319.95312 286.45938Q319.51562 286.24063 319.28125 285.86563Q319.04688 285.49063 319.04688 285.02188Q319.04688 284.61563 319.23438 284.25626Q319.42188 283.89688 319.75 283.6625Q320.0 283.49063 320.42188 283.36563Q320.84375 283.24063 321.34375 283.24063Q322.0625 283.24063 322.60938 283.45938Q323.17188 283.6625 323.4375 284.02188Q323.70312 284.38126 323.79688 284.975L322.76562 285.11563Q322.70312 284.64688 322.35938 284.38126Q322.03125 284.1 321.40625 284.1Q320.6875 284.1 320.375 284.35Q320.0625 284.58438 320.0625 284.9125Q320.0625 285.11563 320.1875 285.27188Q320.32812 285.44376 320.59375 285.55313Q320.75 285.61563 321.53125 285.81876Q322.65625 286.13126 323.09375 286.31876Q323.53125 286.50626 323.78125 286.86563Q324.03125 287.225 324.03125 287.77188Q324.03125 288.30313 323.71875 288.77188Q323.42188 289.225 322.84375 289.49063Q322.26562 289.74063 321.53125 289.74063Q320.3125 289.74063 319.67188 289.24063Q319.04688 288.725 318.875 287.74063Z" fill-rule="nonzero"/><path fill="#000000" d="M33.86875 244.6L32.821877 244.6L32.821877 237.88126Q32.43125 238.24063 31.80625 238.61563Q31.196875 238.975 30.7125 239.14688L30.7125 238.13126Q31.5875 237.70938 32.24375 237.13126Q32.915627 236.5375 33.196877 235.975L33.86875 235.975L33.86875 244.6Z" fill-rule="nonzero"/><path fill="#000000" d="M29.9 186.54889L31.009375 186.45514Q31.134375 187.26764 31.571875 187.67389Q32.025 188.08014 32.665627 188.08014Q33.415627 188.08014 33.946877 187.50201Q34.478127 186.92389 34.478127 185.98639Q34.478127 185.08014 33.9625 184.56451Q33.4625 184.03326 32.634377 184.03326Q32.134377 184.03326 31.7125 184.26764Q31.30625 184.50201 31.071875 184.86139L30.0875 184.73639L30.915625 180.33014L35.196877 180.33014L35.196877 181.33014L31.759375 181.33014L31.30625 183.64264Q32.071877 183.09576 32.915627 183.09576Q34.040627 183.09576 34.80625 183.87701Q35.5875 184.65826 35.5875 185.89264Q35.5875 187.04889 34.915627 187.90826Q34.0875 188.93951 32.665627 188.93951Q31.49375 188.93951 30.74375 188.28326Q30.009375 187.62701 29.9 186.54889Z" fill-rule="nonzero"/><path fill="#000000" d="M26.86875 164.76666L25.821875 164.76666L25.821875 158.04791Q25.43125 158.40729 24.80625 158.78229Q24.196875 159.14166 23.7125 159.31354L23.7125 158.29791Q24.5875 157.87604 25.24375 157.29791Q25.915625 156.70416 26.196875 156.14166L26.86875 156.14166L26.86875 164.76666ZM29.9 160.53229Q29.9 159.00104 30.2125 158.07916Q30.525 157.14166 31.134375 156.64166Q31.759375 156.14166 32.696877 156.14166Q33.384377 156.14166 33.9 156.42291Q34.43125 156.70416 34.775 157.23541Q35.11875 157.75104 35.30625 158.50104Q35.49375 159.25104 35.49375 160.53229Q35.49375 162.04791 35.18125 162.96979Q34.884377 163.89166 34.259377 164.40729Q33.65 164.90729 32.696877 164.90729Q31.4625 164.90729 30.74375 164.01666Q29.9 162.95416 29.9 160.53229ZM30.978125 160.53229Q30.978125 162.64166 31.478125 163.34479Q31.978125 164.04791 32.696877 164.04791Q33.43125 164.04791 33.915627 163.34479Q34.415627 162.64166 34.415627 160.53229Q34.415627 158.40729 33.915627 157.71979Q33.43125 157.01666 32.68125 157.01666Q31.9625 157.01666 31.525 157.62604Q30.978125 158.40729 30.978125 160.53229Z" fill-rule="nonzero"/><path fill="#000000" d="M22.9 106.71556L24.009375 106.62181Q24.134375 107.43431 24.571875 107.84056Q25.025 108.24681 25.665625 108.24681Q26.415625 108.24681 26.946875 107.668686Q27.478125 107.09056 27.478125 106.15306Q27.478125 105.24681 26.9625 104.731186Q26.4625 104.199936 25.634375 104.199936Q25.134375 104.199936 24.7125 104.43431Q24.30625 104.668686 24.071875 105.02806L23.0875 104.90306L23.915625 100.49681L28.196875 100.49681L28.196875 101.49681L24.759375 101.49681L24.30625 103.80931Q25.071875 103.262436 25.915625 103.262436Q27.040625 103.262436 27.80625 104.043686Q28.5875 104.824936 28.5875 106.05931Q28.5875 107.21556 27.915625 108.074936Q27.0875 109.106186 25.665625 109.106186Q24.49375 109.106186 23.74375 108.449936Q23.009375 107.793686 22.9 106.71556ZM29.9 104.731186Q29.9 103.199936 30.2125 102.27806Q30.525 101.34056 31.134375 100.84056Q31.759375 100.34056 32.696877 100.34056Q33.384377 100.34056 33.9 100.62181Q34.43125 100.90306 34.775 101.43431Q35.11875 101.949936 35.30625 102.699936Q35.49375 103.449936 35.49375 104.731186Q35.49375 106.24681 35.18125 107.168686Q34.884377 108.09056 34.259377 108.606186Q33.65 109.106186 32.696877 109.106186Q31.4625 109.106186 30.74375 108.21556Q29.9 107.15306 29.9 104.731186ZM30.978125 104.731186Q30.978125 106.84056 31.478125 107.543686Q31.978125 108.24681 32.696877 108.24681Q33.43125 108.24681 33.915627 107.543686Q34.415627 106.84056 34.415627 104.731186Q34.415627 102.606186 33.915627 101.918686Q33.43125 101.21556 32.68125 101.21556Q31.9625 101.21556 31.525 101.824936Q30.978125 102.606186 30.978125 104.731186Z" fill-rule="nonzero"/><path fill="#000000" d="M19.86875 84.933334L18.821875 84.933334L18.821875 78.214584Q18.43125 78.57396 17.80625 78.94896Q17.196875 79.308334 16.7125 79.48021L16.7125 78.464584Q17.5875 78.04271 18.24375 77.464584Q18.915625 76.870834 19.196875 76.308334L19.86875 76.308334L19.86875 84.933334ZM22.9 80.69896Q22.9 79.16771 23.2125 78.245834Q23.525 77.308334 24.134375 76.808334Q24.759375 76.308334 25.696875 76.308334Q26.384375 76.308334 26.9 76.589584Q27.43125 76.870834 27.775 77.402084Q28.11875 77.91771 28.30625 78.66771Q28.49375 79.41771 28.49375 80.69896Q28.49375 82.214584 28.18125 83.13646Q27.884375 84.058334 27.259375 84.57396Q26.65 85.07396 25.696875 85.07396Q24.4625 85.07396 23.74375 84.183334Q22.9 83.120834 22.9 80.69896ZM23.978125 80.69896Q23.978125 82.808334 24.478125 83.51146Q24.978125 84.214584 25.696875 84.214584Q26.43125 84.214584 26.915625 83.51146Q27.415625 82.808334 27.415625 80.69896Q27.415625 78.57396 26.915625 77.88646Q26.43125 77.183334 25.68125 77.183334Q24.9625 77.183334 24.525 77.79271Q23.978125 78.57396 23.978125 80.69896ZM29.9 80.69896Q29.9 79.16771 30.2125 78.245834Q30.525 77.308334 31.134375 76.808334Q31.759375 76.308334 32.696877 76.308334Q33.384377 76.308334 33.9 76.589584Q34.43125 76.870834 34.775 77.402084Q35.11875 77.91771 35.30625 78.66771Q35.49375 79.41771 35.49375 80.69896Q35.49375 82.214584 35.18125 83.13646Q34.884377 84.058334 34.259377 84.57396Q33.65 85.07396 32.696877 85.07396Q31.4625 85.07396 30.74375 84.183334Q29.9 83.120834 29.9 80.69896ZM30.978125 80.69896Q30.978125 82.808334 31.478125 83.51146Q31.978125 84.214584 32.696877 84.214584Q33.43125 84.214584 33.915627 83.51146Q34.415627 82.808334 34.415627 80.69896Q34.415627 78.57396 33.915627 77.88646Q33.43125 77.183334 32.68125 77.183334Q31.9625 77.183334 31.525 77.79271Q30.978125 78.57396 30.978125 80.69896Z" fill-rule="nonzero"/><path fill="#000000" d="M124.56875 257.6L123.52187 257.6L123.52187 250.88126Q123.13125 251.24063 122.50625 251.61563Q121.89687 251.975 121.4125 252.14688L121.4125 251.13126Q122.2875 250.70938 122.94375 250.13126Q123.61562 249.5375 123.89687 248.975L124.56875 248.975L124.56875 257.6ZM127.6 253.36563Q127.6 251.83438 127.9125 250.9125Q128.225 249.975 128.83438 249.475Q129.45938 248.975 130.39688 248.975Q131.08438 248.975 131.6 249.25626Q132.13126 249.5375 132.475 250.06876Q132.81876 250.58438 133.00626 251.33438Q133.19376 252.08438 133.19376 253.36563Q133.19376 254.88126 132.88126 255.80313Q132.58438 256.725 131.95938 257.24063Q131.35 257.74063 130.39688 257.74063Q129.1625 257.74063 128.44376 256.85Q127.6 255.7875 127.6 253.36563ZM128.67813 253.36563Q128.67813 255.475 129.17813 256.17813Q129.67813 256.88126 130.39688 256.88126Q131.13126 256.88126 131.61563 256.17813Q132.11563 255.475 132.11563 253.36563Q132.11563 251.24063 131.61563 250.55313Q131.13126 249.85 130.38126 249.85Q129.6625 249.85 129.225 250.45938Q128.67813 251.24063 128.67813 253.36563Z" fill-rule="nonzero"/><path fill="#000000" d="M290.46875 257.6L289.42188 257.6L289.42188 250.88126Q289.03125 251.24063 288.40625 251.61563Q287.79688 251.975 287.3125 252.14688L287.3125 251.13126Q288.1875 250.70938 288.84375 250.13126Q289.51562 249.5375 289.79688 248.975L290.46875 248.975L290.46875 257.6ZM293.5 253.36563Q293.5 251.83438 293.8125 250.9125Q294.125 249.975 294.73438 249.475Q295.35938 248.975 296.29688 248.975Q296.98438 248.975 297.5 249.25626Q298.03125 249.5375 298.375 250.06876Q298.71875 250.58438 298.90625 251.33438Q299.09375 252.08438 299.09375 253.36563Q299.09375 254.88126 298.78125 255.80313Q298.48438 256.725 297.85938 257.24063Q297.25 257.74063 296.29688 257.74063Q295.0625 257.74063 294.34375 256.85Q293.5 255.7875 293.5 253.36563ZM294.57812 253.36563Q294.57812 255.475 295.07812 256.17813Q295.57812 256.88126 296.29688 256.88126Q297.03125 256.88126 297.51562 256.17813Q298.01562 255.475 298.01562 253.36563Q298.01562 251.24063 297.51562 250.55313Q297.03125 249.85 296.28125 249.85Q295.5625 249.85 295.125 250.45938Q294.57812 251.24063 294.57812 253.36563ZM300.5 253.36563Q300.5 251.83438 300.8125 250.9125Q301.125 249.975 301.73438 249.475Q302.35938 248.975 303.29688 248.975Q303.98438 248.975 304.5 249.25626Q305.03125 249.5375 305.375 250.06876Q305.71875 250.58438 305.90625 251.33438Q306.09375 252.08438 306.09375 253.36563Q306.09375 254.88126 305.78125 255.80313Q305.48438 256.725 304.85938 257.24063Q304.25 257.74063 303.29688 257.74063Q302.0625 257.74063 301.34375 256.85Q300.5 255.7875 300.5 253.36563ZM301.57812 253.36563Q301.57812 255.475 302.07812 256.17813Q302.57812 256.88126 303.29688 256.88126Q304.03125 256.88126 304.51562 256.17813Q305.01562 255.475 305.01562 253.36563Q305.01562 251.24063 304.51562 250.55313Q304.03125 249.85 303.28125 249.85Q302.5625 249.85 302.125 250.45938Q301.57812 251.24063 301.57812 253.36563Z" fill-rule="nonzero"/><path fill="#000000" d="M456.36874 257.6L455.32187 257.6L455.32187 250.88126Q454.93124 251.24063 454.30624 251.61563Q453.69687 251.975 453.2125 252.14688L453.2125 251.13126Q454.0875 250.70938 454.74374 250.13126Q455.41562 249.5375 455.69687 248.975L456.36874 248.975L456.36874 257.6ZM459.4 253.36563Q459.4 251.83438 459.7125 250.9125Q460.025 249.975 460.63437 249.475Q461.25937 248.975 462.19687 248.975Q462.88437 248.975 463.4 249.25626Q463.93124 249.5375 464.275 250.06876Q464.61874 250.58438 464.80624 251.33438Q464.99374 252.08438 464.99374 253.36563Q464.99374 254.88126 464.68124 255.80313Q464.38437 256.725 463.75937 257.24063Q463.15 257.74063 462.19687 257.74063Q460.9625 257.74063 460.24374 256.85Q459.4 255.7875 459.4 253.36563ZM460.47812 253.36563Q460.47812 255.475 460.97812 256.17813Q461.47812 256.88126 462.19687 256.88126Q462.93124 256.88126 463.41562 256.17813Q463.91562 255.475 463.91562 253.36563Q463.91562 251.24063 463.41562 250.55313Q462.93124 249.85 462.18124 249.85Q461.4625 249.85 461.025 250.45938Q460.47812 251.24063 460.47812 253.36563ZM466.4 253.36563Q466.4 251.83438 466.7125 250.9125Q467.025 249.975 467.63437 249.475Q468.25937 248.975 469.19687 248.975Q469.88437 248.975 470.4 249.25626Q470.93124 249.5375 471.275 250.06876Q471.61874 250.58438 471.80624 251.33438Q471.99374 252.08438 471.99374 253.36563Q471.99374 254.88126 471.68124 255.80313Q471.38437 256.725 470.75937 257.24063Q470.15 257.74063 469.19687 257.74063Q467.9625 257.74063 467.24374 256.85Q466.4 255.7875 466.4 253.36563ZM467.47812 253.36563Q467.47812 255.475 467.97812 256.17813Q468.47812 256.88126 469.19687 256.88126Q469.93124 256.88126 470.41562 256.17813Q470.91562 255.475 470.91562 253.36563Q470.91562 251.24063 470.41562 250.55313Q469.93124 249.85 469.18124 249.85Q468.4625 249.85 468.025 250.45938Q467.47812 251.24063 467.47812 253.36563ZM473.4 253.36563Q473.4 251.83438 473.7125 250.9125Q474.025 249.975 474.63437 249.475Q475.25937 248.975 476.19687 248.975Q476.88437 248.975 477.4 249.25626Q477.93124 249.5375 478.275 250.06876Q478.61874 250.58438 478.80624 251.33438Q478.99374 252.08438 478.99374 253.36563Q478.99374 254.88126 478.68124 255.80313Q478.38437 256.725 477.75937 257.24063Q477.15 257.74063 476.19687 257.74063Q474.9625 257.74063 474.24374 256.85Q473.4 255.7875 473.4 253.36563ZM474.47812 253.36563Q474.47812 255.475 474.97812 256.17813Q475.47812 256.88126 476.19687 256.88126Q476.93124 256.88126 477.41562 256.17813Q477.91562 255.475 477.91562 253.36563Q477.91562 251.24063 477.41562 250.55313Q476.93124 249.85 476.18124 249.85Q475.4625 249.85 475.025 250.45938Q474.47812 251.24063 474.47812 253.36563Z" fill-rule="nonzero"/><path stroke="#4285f4" stroke-width="4.0" stroke-linecap="butt" d="M161.0 56.666668L173.0 56.666668" fill-rule="nonzero"/><path fill="#1a1a1a" d="M181.9375 60.666668L181.9375 52.072918L185.75 52.072918Q186.90625 52.072918 187.5 52.307293Q188.09375 52.541668 188.45312 53.135418Q188.8125 53.713543 188.8125 54.416668Q188.8125 55.338543 188.21875 55.963543Q187.625 56.588543 186.39062 56.760418Q186.84375 56.979168 187.07812 57.182293Q187.57812 57.635418 188.01562 58.322918L189.51562 60.666668L188.07812 60.666668L186.95312 58.885418Q186.45312 58.104168 186.125 57.697918Q185.8125 57.291668 185.54688 57.135418Q185.29688 56.963543 185.03125 56.885418Q184.84375 56.854168 184.40625 56.854168L183.07812 56.854168L183.07812 60.666668L181.9375 60.666668ZM183.07812 55.869793L185.53125 55.869793Q186.29688 55.869793 186.73438 55.713543Q187.1875 55.541668 187.40625 55.197918Q187.64062 54.838543 187.64062 54.416668Q187.64062 53.807293 187.1875 53.416668Q186.75 53.026043 185.79688 53.026043L183.07812 53.026043L183.07812 55.869793ZM194.875 60.666668L194.875 59.744793Q194.14062 60.807293 192.89062 60.807293Q192.34375 60.807293 191.85938 60.604168Q191.39062 60.385418 191.15625 60.072918Q190.92188 59.744793 190.82812 59.276043Q190.76562 58.979168 190.76562 58.291668L190.76562 54.447918L191.82812 54.447918L191.82812 57.901043Q191.82812 58.713543 191.89062 59.010418Q191.98438 59.416668 192.29688 59.666668Q192.625 59.901043 193.10938 59.901043Q193.57812 59.901043 193.98438 59.666668Q194.40625 59.416668 194.57812 58.994793Q194.76562 58.572918 194.76562 57.776043L194.76562 54.447918L195.8125 54.447918L195.8125 60.666668L194.875 60.666668ZM197.375 58.807293L198.40625 58.651043Q198.5 59.276043 198.89062 59.604168Q199.29688 59.932293 200.03125 59.932293Q200.75 59.932293 201.09375 59.651043Q201.45312 59.354168 201.45312 58.947918Q201.45312 58.588543 201.14062 58.385418Q200.92188 58.244793 200.0625 58.026043Q198.90625 57.729168 198.45312 57.526043Q198.01562 57.307293 197.78125 56.932293Q197.54688 56.557293 197.54688 56.088543Q197.54688 55.682293 197.73438 55.322918Q197.92188 54.963543 198.25 54.729168Q198.5 54.557293 198.92188 54.432293Q199.34375 54.307293 199.84375 54.307293Q200.5625 54.307293 201.10938 54.526043Q201.67188 54.729168 201.9375 55.088543Q202.20312 55.447918 202.29688 56.041668L201.26562 56.182293Q201.20312 55.713543 200.85938 55.447918Q200.53125 55.166668 199.90625 55.166668Q199.1875 55.166668 198.875 55.416668Q198.5625 55.651043 198.5625 55.979168Q198.5625 56.182293 198.6875 56.338543Q198.82812 56.510418 199.09375 56.619793Q199.25 56.682293 200.03125 56.885418Q201.15625 57.197918 201.59375 57.385418Q202.03125 57.572918 202.28125 57.932293Q202.53125 58.291668 202.53125 58.838543Q202.53125 59.369793 202.21875 59.838543Q201.92188 60.291668 201.34375 60.557293Q200.76562 60.807293 200.03125 60.807293Q198.8125 60.807293 198.17188 60.307293Q197.54688 59.791668 197.375 58.807293ZM206.09375 59.729168L206.25 60.651043Q205.79688 60.744793 205.45312 60.744793Q204.875 60.744793 204.5625 60.572918Q204.25 60.385418 204.10938 60.088543Q203.98438 59.791668 203.98438 58.838543L203.98438 55.260418L203.21875 55.260418L203.21875 54.447918L203.98438 54.447918L203.98438 52.901043L205.03125 52.276043L205.03125 54.447918L206.09375 54.447918L206.09375 55.260418L205.03125 55.260418L205.03125 58.901043Q205.03125 59.354168 205.07812 59.479168Q205.14062 59.604168 205.26562 59.682293Q205.39062 59.760418 205.625 59.760418Q205.8125 59.760418 206.09375 59.729168ZM211.42188 60.666668L209.14062 52.072918L210.3125 52.072918L211.625 57.713543Q211.82812 58.588543 211.98438 59.463543Q212.3125 58.088543 212.375 57.869793L214.0 52.072918L215.375 52.072918L216.60938 56.416668Q217.0625 58.041668 217.28125 59.463543Q217.4375 58.651043 217.70312 57.588543L219.04688 52.072918L220.1875 52.072918L217.84375 60.666668L216.73438 60.666668L214.9375 54.119793Q214.70312 53.307293 214.65625 53.119793Q214.53125 53.697918 214.40625 54.119793L212.59375 60.666668L211.42188 60.666668ZM219.98438 60.666668L223.28125 52.072918L224.5 52.072918L228.01562 60.666668L226.73438 60.666668L225.71875 58.057293L222.14062 58.057293L221.1875 60.666668L219.98438 60.666668ZM222.46875 57.135418L225.375 57.135418L224.48438 54.760418Q224.0625 53.682293 223.875 52.979168Q223.70312 53.807293 223.40625 54.619793L222.46875 57.135418ZM228.54688 57.901043L229.60938 57.807293Q229.6875 58.463543 229.96875 58.869793Q230.25 59.276043 230.82812 59.541668Q231.42188 59.791668 232.15625 59.791668Q232.79688 59.791668 233.29688 59.604168Q233.79688 59.401043 234.03125 59.072918Q234.28125 58.729168 234.28125 58.338543Q234.28125 57.932293 234.04688 57.635418Q233.8125 57.322918 233.28125 57.119793Q232.92188 56.979168 231.73438 56.697918Q230.5625 56.416668 230.09375 56.166668Q229.46875 55.838543 229.17188 55.369793Q228.875 54.885418 228.875 54.291668Q228.875 53.651043 229.23438 53.088543Q229.60938 52.510418 230.3125 52.229168Q231.03125 51.932293 231.89062 51.932293Q232.84375 51.932293 233.57812 52.244793Q234.3125 52.541668 234.70312 53.151043Q235.09375 53.744793 235.125 54.494793L234.03125 54.572918Q233.9375 53.760418 233.42188 53.354168Q232.92188 52.932293 231.9375 52.932293Q230.90625 52.932293 230.4375 53.307293Q229.96875 53.682293 229.96875 54.213543Q229.96875 54.682293 230.29688 54.979168Q230.625 55.276043 232.0 55.588543Q233.39062 55.901043 233.90625 56.135418Q234.65625 56.494793 235.01562 57.026043Q235.375 57.541668 235.375 58.244793Q235.375 58.932293 234.98438 59.541668Q234.59375 60.135418 233.85938 60.479168Q233.125 60.807293 232.20312 60.807293Q231.03125 60.807293 230.23438 60.479168Q229.45312 60.135418 229.0 59.447918Q228.5625 58.760418 228.54688 57.901043ZM236.89062 60.666668L236.89062 52.072918L238.60938 52.072918L240.64062 58.151043Q240.92188 59.010418 241.04688 59.432293Q241.1875 58.963543 241.5 58.057293L243.5625 52.072918L245.09375 52.072918L245.09375 60.666668L244.0 60.666668L244.0 53.479168L241.5 60.666668L240.46875 60.666668L237.98438 53.354168L237.98438 60.666668L236.89062 60.666668ZM249.40625 57.557293Q249.40625 55.822918 250.35938 54.994793Q251.15625 54.307293 252.3125 54.307293Q253.59375 54.307293 254.40625 55.151043Q255.23438 55.979168 255.23438 57.463543Q255.23438 58.666668 254.875 59.354168Q254.51562 60.041668 253.8125 60.432293Q253.125 60.807293 252.3125 60.807293Q251.01562 60.807293 250.20312 59.979168Q249.40625 59.135418 249.40625 57.557293ZM250.48438 57.557293Q250.48438 58.744793 251.0 59.338543Q251.53125 59.932293 252.3125 59.932293Q253.10938 59.932293 253.625 59.338543Q254.14062 58.744793 254.14062 57.526043Q254.14062 56.369793 253.60938 55.776043Q253.09375 55.182293 252.3125 55.182293Q251.53125 55.182293 251.0 55.776043Q250.48438 56.354168 250.48438 57.557293ZM256.79688 63.057293L256.79688 54.447918L257.75 54.447918L257.75 55.244793Q258.09375 54.776043 258.51562 54.541668Q258.95312 54.307293 259.5625 54.307293Q260.35938 54.307293 260.96875 54.713543Q261.57812 55.119793 261.875 55.869793Q262.1875 56.619793 262.1875 57.510418Q262.1875 58.463543 261.84375 59.229168Q261.51562 59.994793 260.85938 60.401043Q260.20312 60.807293 259.48438 60.807293Q258.95312 60.807293 258.53125 60.588543Q258.10938 60.354168 257.84375 60.026043L257.84375 63.057293L256.79688 63.057293ZM257.75 57.588543Q257.75 58.791668 258.23438 59.369793Q258.71875 59.932293 259.40625 59.932293Q260.10938 59.932293 260.60938 59.338543Q261.10938 58.744793 261.10938 57.494793Q261.10938 56.307293 260.625 55.729168Q260.14062 55.135418 259.45312 55.135418Q258.78125 55.135418 258.26562 55.760418Q257.75 56.385418 257.75 57.588543ZM263.375 58.807293L264.40625 58.651043Q264.5 59.276043 264.89062 59.604168Q265.29688 59.932293 266.03125 59.932293Q266.75 59.932293 267.09375 59.651043Q267.45312 59.354168 267.45312 58.947918Q267.45312 58.588543 267.14062 58.385418Q266.92188 58.244793 266.0625 58.026043Q264.90625 57.729168 264.45312 57.526043Q264.01562 57.307293 263.78125 56.932293Q263.54688 56.557293 263.54688 56.088543Q263.54688 55.682293 263.73438 55.322918Q263.92188 54.963543 264.25 54.729168Q264.5 54.557293 264.92188 54.432293Q265.34375 54.307293 265.84375 54.307293Q266.5625 54.307293 267.10938 54.526043Q267.67188 54.729168 267.9375 55.088543Q268.20312 55.447918 268.29688 56.041668L267.26562 56.182293Q267.20312 55.713543 266.85938 55.447918Q266.53125 55.166668 265.90625 55.166668Q265.1875 55.166668 264.875 55.416668Q264.5625 55.651043 264.5625 55.979168Q264.5625 56.182293 264.6875 56.338543Q264.82812 56.510418 265.09375 56.619793Q265.25 56.682293 266.03125 56.885418Q267.15625 57.197918 267.59375 57.385418Q268.03125 57.572918 268.28125 57.932293Q268.53125 58.291668 268.53125 58.838543Q268.53125 59.369793 268.21875 59.838543Q267.92188 60.291668 267.34375 60.557293Q266.76562 60.807293 266.03125 60.807293Q264.8125 60.807293 264.17188 60.307293Q263.54688 59.791668 263.375 58.807293ZM269.0 60.807293L271.48438 51.932293L272.32812 51.932293L269.84375 60.807293L269.0 60.807293ZM272.375 58.807293L273.40625 58.651043Q273.5 59.276043 273.89062 59.604168Q274.29688 59.932293 275.03125 59.932293Q275.75 59.932293 276.09375 59.651043Q276.45312 59.354168 276.45312 58.947918Q276.45312 58.588543 276.14062 58.385418Q275.92188 58.244793 275.0625 58.026043Q273.90625 57.729168 273.45312 57.526043Q273.01562 57.307293 272.78125 56.932293Q272.54688 56.557293 272.54688 56.088543Q272.54688 55.682293 272.73438 55.322918Q272.92188 54.963543 273.25 54.729168Q273.5 54.557293 273.92188 54.432293Q274.34375 54.307293 274.84375 54.307293Q275.5625 54.307293 276.10938 54.526043Q276.67188 54.729168 276.9375 55.088543Q277.20312 55.447918 277.29688 56.041668L276.26562 56.182293Q276.20312 55.713543 275.85938 55.447918Q275.53125 55.166668 274.90625 55.166668Q274.1875 55.166668 273.875 55.416668Q273.5625 55.651043 273.5625 55.979168Q273.5625 56.182293 273.6875 56.338543Q273.82812 56.510418 274.09375 56.619793Q274.25 56.682293 275.03125 56.885418Q276.15625 57.197918 276.59375 57.385418Q277.03125 57.572918 277.28125 57.932293Q277.53125 58.291668 277.53125 58.838543Q277.53125 59.369793 277.21875 59.838543Q276.92188 60.291668 276.34375 60.557293Q275.76562 60.807293 275.03125 60.807293Q273.8125 60.807293 273.17188 60.307293Q272.54688 59.791668 272.375 58.807293ZM283.04688 58.666668L284.14062 58.791668Q283.89062 59.744793 283.1875 60.276043Q282.48438 60.807293 281.40625 60.807293Q280.04688 60.807293 279.23438 59.963543Q278.4375 59.119793 278.4375 57.604168Q278.4375 56.041668 279.25 55.182293Q280.0625 54.307293 281.34375 54.307293Q282.59375 54.307293 283.375 55.151043Q284.17188 55.994793 284.17188 57.541668Q284.17188 57.635418 284.17188 57.822918L279.53125 57.822918Q279.59375 58.854168 280.10938 59.401043Q280.625 59.932293 281.40625 59.932293Q281.98438 59.932293 282.39062 59.635418Q282.8125 59.322918 283.04688 58.666668ZM279.59375 56.963543L283.0625 56.963543Q283.0 56.166668 282.67188 55.776043Q282.15625 55.166668 281.35938 55.166668Q280.625 55.166668 280.125 55.651043Q279.64062 56.135418 279.59375 56.963543ZM289.85938 58.385418L290.89062 58.526043Q290.71875 59.588543 290.01562 60.197918Q289.3125 60.807293 288.29688 60.807293Q287.01562 60.807293 286.23438 59.979168Q285.46875 59.135418 285.46875 57.572918Q285.46875 56.572918 285.79688 55.822918Q286.14062 55.057293 286.8125 54.682293Q287.5 54.307293 288.3125 54.307293Q289.3125 54.307293 289.95312 54.822918Q290.60938 55.322918 290.79688 56.276043L289.76562 56.432293Q289.625 55.807293 289.25 55.494793Q288.875 55.166668 288.34375 55.166668Q287.54688 55.166668 287.04688 55.744793Q286.54688 56.307293 286.54688 57.541668Q286.54688 58.807293 287.03125 59.369793Q287.51562 59.932293 288.28125 59.932293Q288.90625 59.932293 289.3125 59.557293Q289.73438 59.182293 289.85938 58.385418Z" fill-rule="nonzero"/><path stroke="#ea4335" stroke-width="4.0" stroke-linecap="butt" d="M307.0 56.666668L319.0 56.666668" fill-rule="nonzero"/><path fill="#1a1a1a" d="M330.10938 60.666668L330.10938 53.088543L327.28125 53.088543L327.28125 52.072918L334.09375 52.072918L334.09375 53.088543L331.25 53.088543L331.25 60.666668L330.10938 60.666668ZM338.875 60.666668L338.875 59.744793Q338.14062 60.807293 336.89062 60.807293Q336.34375 60.807293 335.85938 60.604168Q335.39062 60.385418 335.15625 60.072918Q334.92188 59.744793 334.82812 59.276043Q334.76562 58.979168 334.76562 58.291668L334.76562 54.447918L335.82812 54.447918L335.82812 57.901043Q335.82812 58.713543 335.89062 59.010418Q335.98438 59.416668 336.29688 59.666668Q336.625 59.901043 337.10938 59.901043Q337.57812 59.901043 337.98438 59.666668Q338.40625 59.416668 338.57812 58.994793Q338.76562 58.572918 338.76562 57.776043L338.76562 54.447918L339.8125 54.447918L339.8125 60.666668L338.875 60.666668ZM341.78125 60.666668L341.78125 54.447918L342.73438 54.447918L342.73438 55.385418Q343.09375 54.729168 343.39062 54.526043Q343.70312 54.307293 344.07812 54.307293Q344.60938 54.307293 345.15625 54.635418L344.79688 55.619793Q344.40625 55.385418 344.03125 55.385418Q343.67188 55.385418 343.39062 55.604168Q343.125 55.807293 343.01562 56.182293Q342.82812 56.744793 342.82812 57.401043L342.82812 60.666668L341.78125 60.666668ZM346.04688 60.666668L346.04688 55.260418L345.10938 55.260418L345.10938 54.447918L346.04688 54.447918L346.04688 53.776043Q346.04688 53.151043 346.15625 52.854168Q346.3125 52.432293 346.6875 52.182293Q347.07812 51.932293 347.76562 51.932293Q348.21875 51.932293 348.75 52.041668L348.59375 52.947918Q348.26562 52.901043 347.96875 52.901043Q347.48438 52.901043 347.28125 53.104168Q347.09375 53.307293 347.09375 53.869793L347.09375 54.447918L348.3125 54.447918L348.3125 55.260418L347.09375 55.260418L347.09375 60.666668L346.04688 60.666668ZM349.09375 60.666668L349.09375 59.463543L350.29688 59.463543L350.29688 60.666668L349.09375 60.666668ZM351.78125 53.307293L351.78125 52.072918L352.84375 52.072918L352.84375 53.307293L351.78125 53.307293ZM350.45312 63.088543L350.64062 62.182293Q350.96875 62.260418 351.14062 62.260418Q351.46875 62.260418 351.625 62.041668Q351.78125 61.838543 351.78125 60.979168L351.78125 54.447918L352.84375 54.447918L352.84375 61.010418Q352.84375 62.151043 352.54688 62.604168Q352.15625 63.197918 351.28125 63.197918Q350.84375 63.197918 350.45312 63.088543ZM354.375 58.807293L355.40625 58.651043Q355.5 59.276043 355.89062 59.604168Q356.29688 59.932293 357.03125 59.932293Q357.75 59.932293 358.09375 59.651043Q358.45312 59.354168 358.45312 58.947918Q358.45312 58.588543 358.14062 58.385418Q357.92188 58.244793 357.0625 58.026043Q355.90625 57.729168 355.45312 57.526043Q355.01562 57.307293 354.78125 56.932293Q354.54688 56.557293 354.54688 56.088543Q354.54688 55.682293 354.73438 55.322918Q354.92188 54.963543 355.25 54.729168Q355.5 54.557293 355.92188 54.432293Q356.34375 54.307293 356.84375 54.307293Q357.5625 54.307293 358.10938 54.526043Q358.67188 54.729168 358.9375 55.088543Q359.20312 55.447918 359.29688 56.041668L358.26562 56.182293Q358.20312 55.713543 357.85938 55.447918Q357.53125 55.166668 356.90625 55.166668Q356.1875 55.166668 355.875 55.416668Q355.5625 55.651043 355.5625 55.979168Q355.5625 56.182293 355.6875 56.338543Q355.82812 56.510418 356.09375 56.619793Q356.25 56.682293 357.03125 56.885418Q358.15625 57.197918 358.59375 57.385418Q359.03125 57.572918 359.28125 57.932293Q359.53125 58.291668 359.53125 58.838543Q359.53125 59.369793 359.21875 59.838543Q358.92188 60.291668 358.34375 60.557293Q357.76562 60.807293 357.03125 60.807293Q355.8125 60.807293 355.17188 60.307293Q354.54688 59.791668 354.375 58.807293ZM363.40625 57.557293Q363.40625 55.822918 364.35938 54.994793Q365.15625 54.307293 366.3125 54.307293Q367.59375 54.307293 368.40625 55.151043Q369.23438 55.979168 369.23438 57.463543Q369.23438 58.666668 368.875 59.354168Q368.51562 60.041668 367.8125 60.432293Q367.125 60.807293 366.3125 60.807293Q365.01562 60.807293 364.20312 59.979168Q363.40625 59.135418 363.40625 57.557293ZM364.48438 57.557293Q364.48438 58.744793 365.0 59.338543Q365.53125 59.932293 366.3125 59.932293Q367.10938 59.932293 367.625 59.338543Q368.14062 58.744793 368.14062 57.526043Q368.14062 56.369793 367.60938 55.776043Q367.09375 55.182293 366.3125 55.182293Q365.53125 55.182293 365.0 55.776043Q364.48438 56.354168 364.48438 57.557293ZM370.79688 63.057293L370.79688 54.447918L371.75 54.447918L371.75 55.244793Q372.09375 54.776043 372.51562 54.541668Q372.95312 54.307293 373.5625 54.307293Q374.35938 54.307293 374.96875 54.713543Q375.57812 55.119793 375.875 55.869793Q376.1875 56.619793 376.1875 57.510418Q376.1875 58.463543 375.84375 59.229168Q375.51562 59.994793 374.85938 60.401043Q374.20312 60.807293 373.48438 60.807293Q372.95312 60.807293 372.53125 60.588543Q372.10938 60.354168 371.84375 60.026043L371.84375 63.057293L370.79688 63.057293ZM371.75 57.588543Q371.75 58.791668 372.23438 59.369793Q372.71875 59.932293 373.40625 59.932293Q374.10938 59.932293 374.60938 59.338543Q375.10938 58.744793 375.10938 57.494793Q375.10938 56.307293 374.625 55.729168Q374.14062 55.135418 373.45312 55.135418Q372.78125 55.135418 372.26562 55.760418Q371.75 56.385418 371.75 57.588543ZM377.375 58.807293L378.40625 58.651043Q378.5 59.276043 378.89062 59.604168Q379.29688 59.932293 380.03125 59.932293Q380.75 59.932293 381.09375 59.651043Q381.45312 59.354168 381.45312 58.947918Q381.45312 58.588543 381.14062 58.385418Q380.92188 58.244793 380.0625 58.026043Q378.90625 57.729168 378.45312 57.526043Q378.01562 57.307293 377.78125 56.932293Q377.54688 56.557293 377.54688 56.088543Q377.54688 55.682293 377.73438 55.322918Q377.92188 54.963543 378.25 54.729168Q378.5 54.557293 378.92188 54.432293Q379.34375 54.307293 379.84375 54.307293Q380.5625 54.307293 381.10938 54.526043Q381.67188 54.729168 381.9375 55.088543Q382.20312 55.447918 382.29688 56.041668L381.26562 56.182293Q381.20312 55.713543 380.85938 55.447918Q380.53125 55.166668 379.90625 55.166668Q379.1875 55.166668 378.875 55.416668Q378.5625 55.651043 378.5625 55.979168Q378.5625 56.182293 378.6875 56.338543Q378.82812 56.510418 379.09375 56.619793Q379.25 56.682293 380.03125 56.885418Q381.15625 57.197918 381.59375 57.385418Q382.03125 57.572918 382.28125 57.932293Q382.53125 58.291668 382.53125 58.838543Q382.53125 59.369793 382.21875 59.838543Q381.92188 60.291668 381.34375 60.557293Q380.76562 60.807293 380.03125 60.807293Q378.8125 60.807293 378.17188 60.307293Q377.54688 59.791668 377.375 58.807293ZM383.0 60.807293L385.48438 51.932293L386.32812 51.932293L383.84375 60.807293L383.0 60.807293ZM386.375 58.807293L387.40625 58.651043Q387.5 59.276043 387.89062 59.604168Q388.29688 59.932293 389.03125 59.932293Q389.75 59.932293 390.09375 59.651043Q390.45312 59.354168 390.45312 58.947918Q390.45312 58.588543 390.14062 58.385418Q389.92188 58.244793 389.0625 58.026043Q387.90625 57.729168 387.45312 57.526043Q387.01562 57.307293 386.78125 56.932293Q386.54688 56.557293 386.54688 56.088543Q386.54688 55.682293 386.73438 55.322918Q386.92188 54.963543 387.25 54.729168Q387.5 54.557293 387.92188 54.432293Q388.34375 54.307293 388.84375 54.307293Q389.5625 54.307293 390.10938 54.526043Q390.67188 54.729168 390.9375 55.088543Q391.20312 55.447918 391.29688 56.041668L390.26562 56.182293Q390.20312 55.713543 389.85938 55.447918Q389.53125 55.166668 388.90625 55.166668Q388.1875 55.166668 387.875 55.416668Q387.5625 55.651043 387.5625 55.979168Q387.5625 56.182293 387.6875 56.338543Q387.82812 56.510418 388.09375 56.619793Q388.25 56.682293 389.03125 56.885418Q390.15625 57.197918 390.59375 57.385418Q391.03125 57.572918 391.28125 57.932293Q391.53125 58.291668 391.53125 58.838543Q391.53125 59.369793 391.21875 59.838543Q390.92188 60.291668 390.34375 60.557293Q389.76562 60.807293 389.03125 60.807293Q387.8125 60.807293 387.17188 60.307293Q386.54688 59.791668 386.375 58.807293ZM397.04688 58.666668L398.14062 58.791668Q397.89062 59.744793 397.1875 60.276043Q396.48438 60.807293 395.40625 60.807293Q394.04688 60.807293 393.23438 59.963543Q392.4375 59.119793 392.4375 57.604168Q392.4375 56.041668 393.25 55.182293Q394.0625 54.307293 395.34375 54.307293Q396.59375 54.307293 397.375 55.151043Q398.17188 55.994793 398.17188 57.541668Q398.17188 57.635418 398.17188 57.822918L393.53125 57.822918Q393.59375 58.854168 394.10938 59.401043Q394.625 59.932293 395.40625 59.932293Q395.98438 59.932293 396.39062 59.635418Q396.8125 59.322918 397.04688 58.666668ZM393.59375 56.963543L397.0625 56.963543Q397.0 56.166668 396.67188 55.776043Q396.15625 55.166668 395.35938 55.166668Q394.625 55.166668 394.125 55.651043Q393.64062 56.135418 393.59375 56.963543ZM403.85938 58.385418L404.89062 58.526043Q404.71875 59.588543 404.01562 60.197918Q403.3125 60.807293 402.29688 60.807293Q401.01562 60.807293 400.23438 59.979168Q399.46875 59.135418 399.46875 57.572918Q399.46875 56.572918 399.79688 55.822918Q400.14062 55.057293 400.8125 54.682293Q401.5 54.307293 402.3125 54.307293Q403.3125 54.307293 403.95312 54.822918Q404.60938 55.322918 404.79688 56.276043L403.76562 56.432293Q403.625 55.807293 403.25 55.494793Q402.875 55.166668 402.34375 55.166668Q401.54688 55.166668 401.04688 55.744793Q400.54688 56.307293 400.54688 57.541668Q400.54688 58.807293 401.03125 59.369793Q401.51562 59.932293 402.28125 59.932293Q402.90625 59.932293 403.3125 59.557293Q403.73438 59.182293 403.85938 58.385418Z" fill-rule="nonzero"/><path fill="#757575" d="M16.978125 34.4L16.978125 20.087502L23.321875 20.087502Q25.228125 20.087502 26.228125 20.478127Q27.228125 20.853127 27.821875 21.837502Q28.415625 22.806252 28.415625 23.993752Q28.415625 25.509377 27.43125 26.556252Q26.446875 27.603127 24.384375 27.884377Q25.134375 28.243752 25.525 28.603127Q26.353125 29.353127 27.103125 30.509377L29.5875 34.4L27.2125 34.4L25.30625 31.415627Q24.478125 30.134377 23.946875 29.446877Q23.415625 28.759377 22.978125 28.493752Q22.55625 28.212502 22.11875 28.103127Q21.790625 28.040627 21.071875 28.040627L18.86875 28.040627L18.86875 34.4L16.978125 34.4ZM18.86875 26.400002L22.946875 26.400002Q24.24375 26.400002 24.9625 26.134377Q25.696875 25.868752 26.071875 25.275002Q26.4625 24.681252 26.4625 23.993752Q26.4625 22.978127 25.728125 22.321877Q24.99375 21.665627 23.4 21.665627L18.86875 21.665627L18.86875 26.400002ZM37.509377 34.4L37.509377 32.86875Q36.30625 34.634377 34.228127 34.634377Q33.30625 34.634377 32.509377 34.290627Q31.7125 33.93125 31.321875 33.4Q30.946875 32.86875 30.790625 32.0875Q30.68125 31.571877 30.68125 30.446877L30.68125 24.025002L32.43125 24.025002L32.43125 29.775002Q32.43125 31.150002 32.540627 31.634377Q32.7125 32.321877 33.24375 32.728127Q33.790627 33.11875 34.571877 33.11875Q35.36875 33.11875 36.05625 32.7125Q36.759377 32.30625 37.040627 31.618752Q37.3375 30.915627 37.3375 29.587502L37.3375 24.025002L39.0875 24.025002L39.0875 34.4L37.509377 34.4ZM41.009377 31.306252L42.759377 31.025002Q42.9 32.071877 43.571877 32.634377Q44.24375 33.18125 45.446877 33.18125Q46.65 33.18125 47.228127 32.696877Q47.821877 32.196877 47.821877 31.540627Q47.821877 30.946877 47.30625 30.603127Q46.946877 30.368752 45.509377 30.009377Q43.571877 29.509377 42.821877 29.165627Q42.0875 28.806252 41.696877 28.181252Q41.30625 27.540627 41.30625 26.775002Q41.30625 26.087502 41.61875 25.493752Q41.946877 24.900002 42.49375 24.509377Q42.9 24.212502 43.603127 24.009377Q44.321877 23.790627 45.134377 23.790627Q46.353127 23.790627 47.275 24.150002Q48.196877 24.493752 48.634377 25.103127Q49.071877 25.696877 49.24375 26.696877L47.525 26.931252Q47.4 26.134377 46.8375 25.696877Q46.275 25.243752 45.259377 25.243752Q44.040627 25.243752 43.525 25.650002Q43.009377 26.040627 43.009377 26.571877Q43.009377 26.915627 43.228127 27.196877Q43.43125 27.478127 43.9 27.665627Q44.165627 27.759377 45.446877 28.103127Q47.321877 28.603127 48.05625 28.931252Q48.790627 29.243752 49.2125 29.853127Q49.634377 30.446877 49.634377 31.353127Q49.634377 32.228127 49.11875 33.009377Q48.603127 33.790627 47.634377 34.2125Q46.665627 34.634377 45.446877 34.634377Q43.43125 34.634377 42.36875 33.790627Q41.30625 32.946877 41.009377 31.306252ZM55.55625 32.821877L55.80625 34.384377Q55.071877 34.540627 54.478127 34.540627Q53.525 34.540627 52.99375 34.24375Q52.478127 33.93125 52.259377 33.446877Q52.040627 32.946877 52.040627 31.368752L52.040627 25.400002L50.759377 25.400002L50.759377 24.025002L52.040627 24.025002L52.040627 21.462502L53.790627 20.400002L53.790627 24.025002L55.55625 24.025002L55.55625 25.400002L53.790627 25.400002L53.790627 31.462502Q53.790627 32.2125 53.884377 32.43125Q53.978127 32.634377 54.18125 32.775Q54.4 32.9 54.790627 32.9Q55.071877 32.9 55.55625 32.821877ZM66.44688 34.4L62.65 20.087502L64.5875 20.087502L66.75938 29.462502Q67.11875 30.946877 67.36875 32.4Q67.91563 30.103127 68.00938 29.743752L70.74375 20.087502L73.025 20.087502L75.07188 27.321877Q75.85313 30.025002 76.19688 32.4Q76.4625 31.040627 76.9 29.275002L79.15 20.087502L81.05625 20.087502L77.13438 34.4L75.30625 34.4L72.29063 23.493752Q71.9 22.118752 71.8375 21.806252Q71.60313 22.790627 71.41563 23.493752L68.38438 34.4L66.44688 34.4ZM81.36875 34.4L86.86875 20.087502L88.91563 20.087502L94.775 34.4L92.61875 34.4L90.94688 30.056252L84.9625 30.056252L83.38438 34.4L81.36875 34.4ZM85.50938 28.525002L90.35313 28.525002L88.86875 24.556252Q88.18125 22.743752 87.85313 21.587502Q87.57188 22.962502 87.07188 24.321877L85.50938 28.525002ZM95.30625 29.806252L97.0875 29.650002Q97.2125 30.712502 97.66563 31.400002Q98.13438 32.0875 99.10313 32.525Q100.0875 32.946877 101.32188 32.946877Q102.4 32.946877 103.22813 32.634377Q104.05625 32.30625 104.4625 31.743752Q104.86875 31.181252 104.86875 30.509377Q104.86875 29.837502 104.47813 29.337502Q104.0875 28.837502 103.19688 28.493752Q102.61875 28.259377 100.63438 27.790627Q98.66563 27.321877 97.88438 26.900002Q96.85313 26.368752 96.35313 25.571877Q95.85313 24.775002 95.85313 23.790627Q95.85313 22.696877 96.4625 21.759377Q97.07188 20.821877 98.25938 20.337502Q99.44688 19.837502 100.88438 19.837502Q102.47813 19.837502 103.69688 20.353127Q104.91563 20.868752 105.55625 21.868752Q106.2125 22.853127 106.25938 24.118752L104.44688 24.259377Q104.30625 22.900002 103.4625 22.212502Q102.61875 21.509377 100.9625 21.509377Q99.24375 21.509377 98.44688 22.150002Q97.66563 22.775002 97.66563 23.650002Q97.66563 24.431252 98.22813 24.931252Q98.775 25.431252 101.0875 25.946877Q103.4 26.462502 104.25938 26.853127Q105.50938 27.431252 106.10313 28.321877Q106.69688 29.196877 106.69688 30.353127Q106.69688 31.493752 106.04063 32.509377Q105.38438 33.525 104.15 34.0875Q102.93125 34.65 101.4 34.65Q99.4625 34.65 98.15 34.0875Q96.8375 33.509377 96.0875 32.36875Q95.3375 31.228127 95.30625 29.806252ZM108.88438 34.4L108.88438 20.087502L111.74375 20.087502L115.11875 30.212502Q115.5875 31.634377 115.80625 32.3375Q116.05625 31.556252 116.57188 30.040627L119.99375 20.087502L122.54063 20.087502L122.54063 34.4L120.72813 34.4L120.72813 22.415627L116.55625 34.4L114.85313 34.4L110.7125 22.212502L110.7125 34.4L108.88438 34.4ZM134.60312 34.4L130.65 24.025002L132.50937 24.025002L134.74374 30.243752Q135.10312 31.243752 135.4 32.321877Q135.63437 31.509377 136.05624 30.353127L138.35312 24.025002L140.16562 24.025002L136.24374 34.4L134.60312 34.4ZM141.00937 31.306252L142.75937 31.025002Q142.9 32.071877 143.57187 32.634377Q144.24374 33.18125 145.44687 33.18125Q146.65 33.18125 147.22812 32.696877Q147.82187 32.196877 147.82187 31.540627Q147.82187 30.946877 147.30624 30.603127Q146.94687 30.368752 145.50937 30.009377Q143.57187 29.509377 142.82187 29.165627Q142.0875 28.806252 141.69687 28.181252Q141.30624 27.540627 141.30624 26.775002Q141.30624 26.087502 141.61874 25.493752Q141.94687 24.900002 142.49374 24.509377Q142.9 24.212502 143.60312 24.009377Q144.32187 23.790627 145.13437 23.790627Q146.35312 23.790627 147.275 24.150002Q148.19687 24.493752 148.63437 25.103127Q149.07187 25.696877 149.24374 26.696877L147.525 26.931252Q147.4 26.134377 146.8375 25.696877Q146.275 25.243752 145.25937 25.243752Q144.04062 25.243752 143.525 25.650002Q143.00937 26.040627 143.00937 26.571877Q143.00937 26.915627 143.22812 27.196877Q143.43124 27.478127 143.9 27.665627Q144.16562 27.759377 145.44687 28.103127Q147.32187 28.603127 148.05624 28.931252Q148.79062 29.243752 149.2125 29.853127Q149.63437 30.446877 149.63437 31.353127Q149.63437 32.228127 149.11874 33.009377Q148.60312 33.790627 147.63437 34.2125Q146.66562 34.634377 145.44687 34.634377Q143.43124 34.634377 142.36874 33.790627Q141.30624 32.946877 141.00937 31.306252ZM161.5875 34.4L161.5875 21.775002L156.86874 21.775002L156.86874 20.087502L168.2125 20.087502L168.2125 21.775002L163.47812 21.775002L163.47812 34.4L161.5875 34.4ZM176.50937 34.4L176.50937 32.86875Q175.30624 34.634377 173.22812 34.634377Q172.30624 34.634377 171.50937 34.290627Q170.7125 33.93125 170.32187 33.4Q169.94687 32.86875 169.79062 32.0875Q169.68124 31.571877 169.68124 30.446877L169.68124 24.025002L171.43124 24.025002L171.43124 29.775002Q171.43124 31.150002 171.54062 31.634377Q171.7125 32.321877 172.24374 32.728127Q172.79062 33.11875 173.57187 33.11875Q174.36874 33.11875 175.05624 32.7125Q175.75937 32.30625 176.04062 31.618752Q176.3375 30.915627 176.3375 29.587502L176.3375 24.025002L178.0875 24.025002L178.0875 34.4L176.50937 34.4ZM180.69687 34.4L180.69687 24.025002L182.275 24.025002L182.275 25.603127Q182.88437 24.493752 183.4 24.150002Q183.91562 23.790627 184.525 23.790627Q185.41562 23.790627 186.3375 24.353127L185.72812 25.993752Q185.0875 25.603127 184.44687 25.603127Q183.86874 25.603127 183.4 25.962502Q182.94687 26.306252 182.74374 26.915627Q182.4625 27.853127 182.4625 28.962502L182.4625 34.4L180.69687 34.4ZM188.13437 34.4L188.13437 25.400002L186.5875 25.400002L186.5875 24.025002L188.13437 24.025002L188.13437 22.931252Q188.13437 21.884377 188.32187 21.368752Q188.57187 20.681252 189.2125 20.259377Q189.85312 19.837502 191.00937 19.837502Q191.75937 19.837502 192.65 20.009377L192.38437 21.540627Q191.8375 21.446877 191.35312 21.446877Q190.55624 21.446877 190.2125 21.790627Q189.88437 22.134377 189.88437 23.071877L189.88437 24.025002L191.91562 24.025002L191.91562 25.400002L189.88437 25.400002L189.88437 34.4L188.13437 34.4ZM194.2125 34.4L194.2125 32.4L196.2125 32.4L196.2125 34.4L194.2125 34.4ZM199.7125 22.118752L199.7125 20.087502L201.4625 20.087502L201.4625 22.118752L199.7125 22.118752ZM197.47812 38.43125L197.80624 36.93125Q198.3375 37.071877 198.65 37.071877Q199.18124 37.071877 199.44687 36.7125Q199.7125 36.353127 199.7125 34.93125L199.7125 24.025002L201.4625 24.025002L201.4625 34.9625Q201.4625 36.884377 200.9625 37.634377Q200.3375 38.603127 198.85312 38.603127Q198.15 38.603127 197.47812 38.43125ZM203.00937 31.306252L204.75937 31.025002Q204.9 32.071877 205.57187 32.634377Q206.24374 33.18125 207.44687 33.18125Q208.65 33.18125 209.22812 32.696877Q209.82187 32.196877 209.82187 31.540627Q209.82187 30.946877 209.30624 30.603127Q208.94687 30.368752 207.50937 30.009377Q205.57187 29.509377 204.82187 29.165627Q204.0875 28.806252 203.69687 28.181252Q203.30624 27.540627 203.30624 26.775002Q203.30624 26.087502 203.61874 25.493752Q203.94687 24.900002 204.49374 24.509377Q204.9 24.212502 205.60312 24.009377Q206.32187 23.790627 207.13437 23.790627Q208.35312 23.790627 209.275 24.150002Q210.19687 24.493752 210.63437 25.103127Q211.07187 25.696877 211.24374 26.696877L209.525 26.931252Q209.4 26.134377 208.8375 25.696877Q208.275 25.243752 207.25937 25.243752Q206.04062 25.243752 205.525 25.650002Q205.00937 26.040627 205.00937 26.571877Q205.00937 26.915627 205.22812 27.196877Q205.43124 27.478127 205.9 27.665627Q206.16562 27.759377 207.44687 28.103127Q209.32187 28.603127 210.05624 28.931252Q210.79062 29.243752 211.2125 29.853127Q211.63437 30.446877 211.63437 31.353127Q211.63437 32.228127 211.11874 33.009377Q210.60312 33.790627 209.63437 34.2125Q208.66562 34.634377 207.44687 34.634377Q205.43124 34.634377 204.36874 33.790627Q203.30624 32.946877 203.00937 31.306252ZM219.07187 29.212502Q219.07187 26.337502 220.66562 24.946877Q222.00937 23.790627 223.93124 23.790627Q226.07187 23.790627 227.41562 25.196877Q228.775 26.603127 228.775 29.071877Q228.775 31.071877 228.18124 32.228127Q227.5875 33.36875 226.43124 34.009377Q225.29062 34.634377 223.93124 34.634377Q221.74374 34.634377 220.4 33.24375Q219.07187 31.837502 219.07187 29.212502ZM220.86874 29.212502Q220.86874 31.212502 221.72812 32.196877Q222.60312 33.18125 223.93124 33.18125Q225.24374 33.18125 226.10312 32.196877Q226.97812 31.196877 226.97812 29.150002Q226.97812 27.228127 226.10312 26.243752Q225.22812 25.243752 223.93124 25.243752Q222.60312 25.243752 221.72812 26.243752Q220.86874 27.228127 220.86874 29.212502ZM230.7125 34.4L230.7125 24.025002L232.30624 24.025002L232.30624 25.509377Q233.44687 23.790627 235.60312 23.790627Q236.54062 23.790627 237.32187 24.134377Q238.11874 24.462502 238.50937 25.009377Q238.9 25.556252 239.05624 26.306252Q239.15 26.806252 239.15 28.025002L239.15 34.4L237.38437 34.4L237.38437 28.087502Q237.38437 27.009377 237.18124 26.478127Q236.97812 25.946877 236.44687 25.634377Q235.93124 25.321877 235.22812 25.321877Q234.10312 25.321877 233.29062 26.040627Q232.47812 26.743752 232.47812 28.728127L232.47812 34.4L230.7125 34.4ZM247.30624 29.806252L249.0875 29.650002Q249.2125 30.712502 249.66562 31.400002Q250.13437 32.0875 251.10312 32.525Q252.0875 32.946877 253.32187 32.946877Q254.4 32.946877 255.22812 32.634377Q256.05624 32.30625 256.4625 31.743752Q256.86874 31.181252 256.86874 30.509377Q256.86874 29.837502 256.47812 29.337502Q256.0875 28.837502 255.19687 28.493752Q254.61874 28.259377 252.63437 27.790627Q250.66562 27.321877 249.88437 26.900002Q248.85312 26.368752 248.35312 25.571877Q247.85312 24.775002 247.85312 23.790627Q247.85312 22.696877 248.4625 21.759377Q249.07187 20.821877 250.25937 20.337502Q251.44687 19.837502 252.88437 19.837502Q254.47812 19.837502 255.69687 20.353127Q256.91562 20.868752 257.55624 21.868752Q258.2125 22.853127 258.25937 24.118752L256.44687 24.259377Q256.30624 22.900002 255.4625 22.212502Q254.61874 21.509377 252.9625 21.509377Q251.24374 21.509377 250.44687 22.150002Q249.66562 22.775002 249.66562 23.650002Q249.66562 24.431252 250.22812 24.931252Q250.775 25.431252 253.0875 25.946877Q255.4 26.462502 256.25937 26.853127Q257.50937 27.431252 258.10312 28.321877Q258.69687 29.196877 258.69687 30.353127Q258.69687 31.493752 258.04062 32.509377Q257.38437 33.525 256.15 34.0875Q254.93124 34.65 253.4 34.65Q251.4625 34.65 250.15 34.0875Q248.8375 33.509377 248.0875 32.36875Q247.3375 31.228127 247.30624 29.806252ZM260.72812 22.103127L260.72812 20.087502L262.49374 20.087502L262.49374 22.103127L260.72812 22.103127ZM260.72812 34.4L260.72812 24.025002L262.49374 24.025002L262.49374 34.4L260.72812 34.4ZM264.7125 34.4L264.7125 24.025002L266.29062 24.025002L266.29062 25.478127Q266.775 24.728127 267.5875 24.259377Q268.4 23.790627 269.43124 23.790627Q270.5875 23.790627 271.32187 24.275002Q272.05624 24.743752 272.36874 25.603127Q273.60312 23.790627 275.57187 23.790627Q277.11874 23.790627 277.94687 24.650002Q278.775 25.509377 278.775 27.275002L278.775 34.4L277.025 34.4L277.025 27.868752Q277.025 26.806252 276.85312 26.353127Q276.68124 25.884377 276.22812 25.603127Q275.79062 25.321877 275.18124 25.321877Q274.0875 25.321877 273.35312 26.056252Q272.63437 26.775002 272.63437 28.368752L272.63437 34.4L270.88437 34.4L270.88437 27.665627Q270.88437 26.493752 270.44687 25.915627Q270.025 25.321877 269.04062 25.321877Q268.30624 25.321877 267.66562 25.712502Q267.04062 26.103127 266.75937 26.853127Q266.47812 27.603127 266.47812 29.025002L266.47812 34.4L264.7125 34.4ZM281.7125 38.36875L281.7125 24.025002L283.32187 24.025002L283.32187 25.368752Q283.88437 24.587502 284.5875 24.196877Q285.30624 23.790627 286.32187 23.790627Q287.65 23.790627 288.66562 24.478127Q289.68124 25.165627 290.19687 26.415627Q290.72812 27.650002 290.72812 29.134377Q290.72812 30.728127 290.15 32.009377Q289.5875 33.275 288.49374 33.9625Q287.4 34.634377 286.19687 34.634377Q285.32187 34.634377 284.61874 34.259377Q283.93124 33.884377 283.47812 33.321877L283.47812 38.36875L281.7125 38.36875ZM283.30624 29.275002Q283.30624 31.275002 284.11874 32.228127Q284.93124 33.18125 286.0875 33.18125Q287.25937 33.18125 288.0875 32.196877Q288.93124 31.212502 288.93124 29.118752Q288.93124 27.150002 288.10312 26.165627Q287.29062 25.165627 286.16562 25.165627Q285.04062 25.165627 284.16562 26.228127Q283.30624 27.275002 283.30624 29.275002ZM292.68124 34.4L292.68124 20.087502L294.43124 20.087502L294.43124 34.4L292.68124 34.4ZM303.82187 31.056252L305.63437 31.290627Q305.2125 32.86875 304.04062 33.759377Q302.88437 34.634377 301.07187 34.634377Q298.80624 34.634377 297.4625 33.24375Q296.13437 31.837502 296.13437 29.306252Q296.13437 26.681252 297.47812 25.243752Q298.82187 23.790627 300.97812 23.790627Q303.05624 23.790627 304.36874 25.212502Q305.69687 26.618752 305.69687 29.196877Q305.69687 29.353127 305.68124 29.665627L297.94687 29.665627Q298.04062 31.368752 298.91562 32.275Q299.79062 33.18125 301.0875 33.18125Q302.05624 33.18125 302.72812 32.68125Q303.41562 32.165627 303.82187 31.056252ZM298.04062 28.212502L303.8375 28.212502Q303.72812 26.915627 303.18124 26.259377Q302.3375 25.243752 300.99374 25.243752Q299.79062 25.243752 298.9625 26.056252Q298.13437 26.853127 298.04062 28.212502ZM313.94687 34.4L313.94687 20.087502L319.3375 20.087502Q320.775 20.087502 321.525 20.212502Q322.57187 20.400002 323.29062 20.900002Q324.00937 21.384377 324.43124 22.275002Q324.86874 23.165627 324.86874 24.228127Q324.86874 26.056252 323.69687 27.321877Q322.54062 28.571877 319.50937 28.571877L315.8375 28.571877L315.8375 34.4L313.94687 34.4ZM315.8375 26.884377L319.54062 26.884377Q321.36874 26.884377 322.13437 26.212502Q322.91562 25.525002 322.91562 24.275002Q322.91562 23.384377 322.4625 22.743752Q322.00937 22.103127 321.275 21.900002Q320.79062 21.775002 319.49374 21.775002L315.8375 21.775002L315.8375 26.884377ZM326.07187 29.212502Q326.07187 26.337502 327.66562 24.946877Q329.00937 23.790627 330.93124 23.790627Q333.07187 23.790627 334.41562 25.196877Q335.775 26.603127 335.775 29.071877Q335.775 31.071877 335.18124 32.228127Q334.5875 33.36875 333.43124 34.009377Q332.29062 34.634377 330.93124 34.634377Q328.74374 34.634377 327.4 33.24375Q326.07187 31.837502 326.07187 29.212502ZM327.86874 29.212502Q327.86874 31.212502 328.72812 32.196877Q329.60312 33.18125 330.93124 33.18125Q332.24374 33.18125 333.10312 32.196877Q333.97812 31.196877 333.97812 29.150002Q333.97812 27.228127 333.10312 26.243752Q332.22812 25.243752 330.93124 25.243752Q329.60312 25.243752 328.72812 26.243752Q327.86874 27.228127 327.86874 29.212502ZM337.68124 34.4L337.68124 20.087502L339.43124 20.087502L339.43124 34.4L337.68124 34.4ZM341.63437 38.4L341.44687 36.74375Q342.025 36.9 342.44687 36.9Q343.04062 36.9 343.38437 36.696877Q343.74374 36.509377 343.9625 36.165627Q344.13437 35.9 344.50937 34.853127Q344.55624 34.696877 344.66562 34.415627L340.72812 24.025002L342.61874 24.025002L344.775 30.040627Q345.19687 31.181252 345.525 32.43125Q345.8375 31.228127 346.24374 30.071877L348.4625 24.025002L350.22812 24.025002L346.275 34.571877Q345.65 36.290627 345.29062 36.93125Q344.82187 37.80625 344.2125 38.196877Q343.61874 38.603127 342.775 38.603127Q342.25937 38.603127 341.63437 38.4ZM351.4 35.259377L353.10312 35.509377Q353.2125 36.30625 353.69687 36.665627Q354.35312 37.15 355.49374 37.15Q356.7125 37.15 357.36874 36.665627Q358.04062 36.18125 358.275 35.30625Q358.41562 34.759377 358.4 33.040627Q357.24374 34.4 355.525 34.4Q353.38437 34.4 352.2125 32.853127Q351.04062 31.306252 351.04062 29.150002Q351.04062 27.665627 351.57187 26.415627Q352.11874 25.165627 353.13437 24.478127Q354.16562 23.790627 355.54062 23.790627Q357.36874 23.790627 358.57187 25.275002L358.57187 24.025002L360.18124 24.025002L360.18124 32.99375Q360.18124 35.415627 359.68124 36.415627Q359.19687 37.43125 358.11874 38.009377Q357.05624 38.603127 355.49374 38.603127Q353.65 38.603127 352.49374 37.775Q351.35312 36.946877 351.4 35.259377ZM352.85312 29.025002Q352.85312 31.071877 353.66562 32.009377Q354.47812 32.946877 355.69687 32.946877Q356.9 32.946877 357.7125 32.009377Q358.54062 31.071877 358.54062 29.087502Q358.54062 27.181252 357.69687 26.212502Q356.85312 25.243752 355.66562 25.243752Q354.49374 25.243752 353.66562 26.196877Q352.85312 27.150002 352.85312 29.025002ZM362.07187 29.212502Q362.07187 26.337502 363.66562 24.946877Q365.00937 23.790627 366.93124 23.790627Q369.07187 23.790627 370.41562 25.196877Q371.775 26.603127 371.775 29.071877Q371.775 31.071877 371.18124 32.228127Q370.5875 33.36875 369.43124 34.009377Q368.29062 34.634377 366.93124 34.634377Q364.74374 34.634377 363.4 33.24375Q362.07187 31.837502 362.07187 29.212502ZM363.86874 29.212502Q363.86874 31.212502 364.72812 32.196877Q365.60312 33.18125 366.93124 33.18125Q368.24374 33.18125 369.10312 32.196877Q369.97812 31.196877 369.97812 29.150002Q369.97812 27.228127 369.10312 26.243752Q368.22812 25.243752 366.93124 25.243752Q365.60312 25.243752 364.72812 26.243752Q363.86874 27.228127 363.86874 29.212502ZM373.7125 34.4L373.7125 24.025002L375.30624 24.025002L375.30624 25.509377Q376.44687 23.790627 378.60312 23.790627Q379.54062 23.790627 380.32187 24.134377Q381.11874 24.462502 381.50937 25.009377Q381.9 25.556252 382.05624 26.306252Q382.15 26.806252 382.15 28.025002L382.15 34.4L380.38437 34.4L380.38437 28.087502Q380.38437 27.009377 380.18124 26.478127Q379.97812 25.946877 379.44687 25.634377Q378.93124 25.321877 378.22812 25.321877Q377.10312 25.321877 376.29062 26.040627Q375.47812 26.743752 375.47812 28.728127L375.47812 34.4L373.7125 34.4ZM384.00937 31.306252L385.75937 31.025002Q385.9 32.071877 386.57187 32.634377Q387.24374 33.18125 388.44687 33.18125Q389.65 33.18125 390.22812 32.696877Q390.82187 32.196877 390.82187 31.540627Q390.82187 30.946877 390.30624 30.603127Q389.94687 30.368752 388.50937 30.009377Q386.57187 29.509377 385.82187 29.165627Q385.0875 28.806252 384.69687 28.181252Q384.30624 27.540627 384.30624 26.775002Q384.30624 26.087502 384.61874 25.493752Q384.94687 24.900002 385.49374 24.509377Q385.9 24.212502 386.60312 24.009377Q387.32187 23.790627 388.13437 23.790627Q389.35312 23.790627 390.275 24.150002Q391.19687 24.493752 391.63437 25.103127Q392.07187 25.696877 392.24374 26.696877L390.525 26.931252Q390.4 26.134377 389.8375 25.696877Q389.275 25.243752 388.25937 25.243752Q387.04062 25.243752 386.525 25.650002Q386.00937 26.040627 386.00937 26.571877Q386.00937 26.915627 386.22812 27.196877Q386.43124 27.478127 386.9 27.665627Q387.16562 27.759377 388.44687 28.103127Q390.32187 28.603127 391.05624 28.931252Q391.79062 29.243752 392.2125 29.853127Q392.63437 30.446877 392.63437 31.353127Q392.63437 32.228127 392.11874 33.009377Q391.60312 33.790627 390.63437 34.2125Q389.66562 34.634377 388.44687 34.634377Q386.43124 34.634377 385.36874 33.790627Q384.30624 32.946877 384.00937 31.306252ZM404.07187 38.603127Q402.61874 36.775 401.61874 34.321877Q400.61874 31.853127 400.61874 29.212502Q400.61874 26.884377 401.36874 24.759377Q402.24374 22.290627 404.07187 19.837502L405.3375 19.837502Q404.15 21.868752 403.775 22.743752Q403.18124 24.087502 402.8375 25.556252Q402.41562 27.384377 402.41562 29.228127Q402.41562 33.915627 405.3375 38.603127L404.07187 38.603127ZM407.86874 34.4L407.86874 20.087502L409.75937 20.087502L409.75937 32.7125L416.80624 32.7125L416.80624 34.4L407.86874 34.4ZM418.07187 29.212502Q418.07187 26.337502 419.66562 24.946877Q421.00937 23.790627 422.93124 23.790627Q425.07187 23.790627 426.41562 25.196877Q427.775 26.603127 427.775 29.071877Q427.775 31.071877 427.18124 32.228127Q426.5875 33.36875 425.43124 34.009377Q424.29062 34.634377 422.93124 34.634377Q420.74374 34.634377 419.4 33.24375Q418.07187 31.837502 418.07187 29.212502ZM419.86874 29.212502Q419.86874 31.212502 420.72812 32.196877Q421.60312 33.18125 422.93124 33.18125Q424.24374 33.18125 425.10312 32.196877Q425.97812 31.196877 425.97812 29.150002Q425.97812 27.228127 425.10312 26.243752Q424.22812 25.243752 422.93124 25.243752Q421.60312 25.243752 420.72812 26.243752Q419.86874 27.228127 419.86874 29.212502ZM429.4 35.259377L431.10312 35.509377Q431.2125 36.30625 431.69687 36.665627Q432.35312 37.15 433.49374 37.15Q434.7125 37.15 435.36874 36.665627Q436.04062 36.18125 436.275 35.30625Q436.41562 34.759377 436.4 33.040627Q435.24374 34.4 433.525 34.4Q431.38437 34.4 430.2125 32.853127Q429.04062 31.306252 429.04062 29.150002Q429.04062 27.665627 429.57187 26.415627Q430.11874 25.165627 431.13437 24.478127Q432.16562 23.790627 433.54062 23.790627Q435.36874 23.790627 436.57187 25.275002L436.57187 24.025002L438.18124 24.025002L438.18124 32.99375Q438.18124 35.415627 437.68124 36.415627Q437.19687 37.43125 436.11874 38.009377Q435.05624 38.603127 433.49374 38.603127Q431.65 38.603127 430.49374 37.775Q429.35312 36.946877 429.4 35.259377ZM430.85312 29.025002Q430.85312 31.071877 431.66562 32.009377Q432.47812 32.946877 433.69687 32.946877Q434.9 32.946877 435.7125 32.009377Q436.54062 31.071877 436.54062 29.087502Q436.54062 27.181252 435.69687 26.212502Q434.85312 25.243752 433.66562 25.243752Q432.49374 25.243752 431.66562 26.196877Q430.85312 27.150002 430.85312 29.025002ZM446.00937 31.306252L447.75937 31.025002Q447.9 32.071877 448.57187 32.634377Q449.24374 33.18125 450.44687 33.18125Q451.65 33.18125 452.22812 32.696877Q452.82187 32.196877 452.82187 31.540627Q452.82187 30.946877 452.30624 30.603127Q451.94687 30.368752 450.50937 30.009377Q448.57187 29.509377 447.82187 29.165627Q447.0875 28.806252 446.69687 28.181252Q446.30624 27.540627 446.30624 26.775002Q446.30624 26.087502 446.61874 25.493752Q446.94687 24.900002 447.49374 24.509377Q447.9 24.212502 448.60312 24.009377Q449.32187 23.790627 450.13437 23.790627Q451.35312 23.790627 452.275 24.150002Q453.19687 24.493752 453.63437 25.103127Q454.07187 25.696877 454.24374 26.696877L452.525 26.931252Q452.4 26.134377 451.8375 25.696877Q451.275 25.243752 450.25937 25.243752Q449.04062 25.243752 448.525 25.650002Q448.00937 26.040627 448.00937 26.571877Q448.00937 26.915627 448.22812 27.196877Q448.43124 27.478127 448.9 27.665627Q449.16562 27.759377 450.44687 28.103127Q452.32187 28.603127 453.05624 28.931252Q453.79062 29.243752 454.2125 29.853127Q454.63437 30.446877 454.63437 31.353127Q454.63437 32.228127 454.11874 33.009377Q453.60312 33.790627 452.63437 34.2125Q451.66562 34.634377 450.44687 34.634377Q448.43124 34.634377 447.36874 33.790627Q446.30624 32.946877 446.00937 31.306252ZM463.49374 30.603127L465.2125 30.821877Q464.93124 32.61875 463.75937 33.634377Q462.60312 34.634377 460.9 34.634377Q458.775 34.634377 457.47812 33.24375Q456.18124 31.853127 456.18124 29.259377Q456.18124 27.571877 456.72812 26.321877Q457.29062 25.056252 458.43124 24.431252Q459.57187 23.790627 460.91562 23.790627Q462.60312 23.790627 463.66562 24.650002Q464.74374 25.509377 465.05624 27.071877L463.3375 27.337502Q463.10312 26.290627 462.47812 25.775002Q461.85312 25.243752 460.97812 25.243752Q459.65 25.243752 458.82187 26.196877Q457.99374 27.150002 457.99374 29.196877Q457.99374 31.290627 458.79062 32.24375Q459.5875 33.18125 460.88437 33.18125Q461.91562 33.18125 462.60312 32.55625Q463.30624 31.915627 463.49374 30.603127ZM473.49374 33.11875Q472.50937 33.946877 471.60312 34.290627Q470.69687 34.634377 469.66562 34.634377Q467.9625 34.634377 467.04062 33.80625Q466.11874 32.9625 466.11874 31.665627Q466.11874 30.900002 466.4625 30.275002Q466.82187 29.650002 467.38437 29.275002Q467.94687 28.884377 468.65 28.681252Q469.16562 28.556252 470.2125 28.415627Q472.3375 28.165627 473.3375 27.821877Q473.35312 27.462502 473.35312 27.353127Q473.35312 26.290627 472.85312 25.837502Q472.18124 25.243752 470.85312 25.243752Q469.60312 25.243752 469.00937 25.681252Q468.43124 26.118752 468.15 27.228127L466.43124 26.993752Q466.66562 25.884377 467.19687 25.212502Q467.72812 24.525002 468.74374 24.165627Q469.75937 23.790627 471.10312 23.790627Q472.43124 23.790627 473.25937 24.103127Q474.0875 24.415627 474.47812 24.900002Q474.86874 25.368752 475.025 26.087502Q475.11874 26.540627 475.11874 27.712502L475.11874 30.056252Q475.11874 32.509377 475.22812 33.165627Q475.3375 33.80625 475.68124 34.4L473.8375 34.4Q473.57187 33.853127 473.49374 33.11875ZM473.3375 29.196877Q472.38437 29.587502 470.4625 29.853127Q469.38437 30.009377 468.93124 30.212502Q468.49374 30.400002 468.24374 30.775002Q467.99374 31.150002 467.99374 31.618752Q467.99374 32.321877 468.525 32.790627Q469.05624 33.259377 470.0875 33.259377Q471.10312 33.259377 471.88437 32.821877Q472.68124 32.36875 473.05624 31.603127Q473.3375 30.993752 473.3375 29.837502L473.3375 29.196877ZM477.68124 34.4L477.68124 20.087502L479.43124 20.087502L479.43124 34.4L477.68124 34.4ZM488.82187 31.056252L490.63437 31.290627Q490.2125 32.86875 489.04062 33.759377Q487.88437 34.634377 486.07187 34.634377Q483.80624 34.634377 482.4625 33.24375Q481.13437 31.837502 481.13437 29.306252Q481.13437 26.681252 482.47812 25.243752Q483.82187 23.790627 485.97812 23.790627Q488.05624 23.790627 489.36874 25.212502Q490.69687 26.618752 490.69687 29.196877Q490.69687 29.353127 490.68124 29.665627L482.94687 29.665627Q483.04062 31.368752 483.91562 32.275Q484.79062 33.18125 486.0875 33.18125Q487.05624 33.18125 487.72812 32.68125Q488.41562 32.165627 488.82187 31.056252ZM483.04062 28.212502L488.8375 28.212502Q488.72812 26.915627 488.18124 26.259377Q487.3375 25.243752 485.99374 25.243752Q484.79062 25.243752 483.9625 26.056252Q483.13437 26.853127 483.04062 28.212502ZM493.86874 38.603127L492.61874 38.603127Q495.525 33.915627 495.525 29.228127Q495.525 27.384377 495.11874 25.587502Q494.775 24.118752 494.18124 22.775002Q493.80624 21.884377 492.61874 19.837502L493.86874 19.837502Q495.7125 22.290627 496.5875 24.759377Q497.3375 26.884377 497.3375 29.212502Q497.3375 31.853127 496.32187 34.321877Q495.32187 36.775 493.86874 38.603127Z" fill-rule="nonzero"/></svg>